<?xml version="1.0" encoding="utf-8"?>
<!-- Generator: Adobe Illustrator 15.0.0, SVG Export Plug-In . SVG Version: 6.00 Build 0)  -->
<!DOCTYPE svg PUBLIC "-//W3C//DTD SVG 1.1//EN" "http://www.w3.org/Graphics/SVG/1.1/DTD/svg11.dtd">
<svg version="1.1" id="Ebene_1" xmlns="http://www.w3.org/2000/svg" xmlns:xlink="http://www.w3.org/1999/xlink" x="0px" y="0px"
	 width="1357.929px" height="795px" viewBox="0 0 1357.929 795" enable-background="new 0 0 1357.929 795" xml:space="preserve">
<path fill="none" stroke="#000000" stroke-width="0.5" stroke-miterlimit="10" d="M196.574,203.333"/>
<polygon fill="none" stroke="#000000" stroke-width="0.5" stroke-miterlimit="10" points="249.883,235.562 249.883,221.39 
	258.385,221.39 258.385,207.216 249.883,207.216 249.883,193.043 258.385,193.043 258.385,164.679 245.624,152.982 239.852,159.282 
	226.76,147.287 232.535,140.986 219.443,128.988 213.67,135.289 200.578,123.293 206.354,116.99 193.299,105.024 187.493,111.359 
	174.402,99.364 180.209,93.027 167.118,81.029 161.311,87.366 148.221,75.37 154.029,69.032 140.865,56.967 135.057,63.306 
	121.966,51.31 127.775,44.97 114.686,32.972 108.875,39.312 95.784,27.316 101.596,20.975 14.885,9.377 14.885,406.119 
	14.992,406.021 14.943,405.968 101.534,393.462 101.582,393.514 114.688,381.501 108.812,375.089 121.902,363.092 127.778,369.504 
	140.889,357.489 134.973,351.034 148.062,339.038 153.979,345.492 167.122,333.446 161.249,327.037 174.339,315.04 180.212,321.449 
	193.31,309.444 187.424,303.022 200.516,291.026 206.4,297.448 219.449,285.488 213.605,279.112 226.697,267.116 232.539,273.491 
	258.385,249.804 258.385,235.562 "/>
<polygon fill="none" stroke="#000000" stroke-width="0.5" stroke-miterlimit="10" points="433.992,20.232 420.939,32.193 
	428.621,40.575 415.529,52.573 407.818,44.158 394.763,56.124 402.445,64.506 389.354,76.502 381.673,68.121 368.583,80.119 
	376.263,88.5 363.173,100.496 355.493,92.116 342.331,104.181 350.009,112.56 336.917,124.556 329.239,116.179 316.151,128.176 
	323.827,136.552 310.735,148.549 303.06,140.174 303.034,140.197 303.034,140.197 301.694,141.427 276.849,164.198 276.849,177.979 
	285.331,177.979 285.331,192.151 276.849,192.151 276.849,206.325 285.331,206.325 285.331,220.498 276.849,220.498 
	276.849,249.323 290.163,261.525 296.03,255.122 309.122,267.117 303.253,273.522 303.267,273.535 303.278,273.521 316.356,285.505 
	322.212,279.115 335.304,291.111 329.433,297.518 342.489,309.483 348.39,303.045 361.479,315.04 355.579,321.479 355.593,321.493 
	355.638,321.444 368.714,333.43 374.571,327.038 387.661,339.034 381.759,345.474 394.924,357.539 400.824,351.099 413.916,363.095 
	408.014,369.536 408.025,369.548 408.074,369.496 421.152,381.481 427.006,375.093 440.098,387.088 434.193,393.53 520.343,405.104 
	520.343,8.401 433.961,20.197 "/>
<polygon fill="none" stroke="#000000" stroke-width="0.5" stroke-miterlimit="10" points="757.55,260.091 770.538,248.188 
	770.538,233.877 761.995,233.877 761.995,219.704 770.538,219.704 770.538,205.531 761.995,205.531 761.995,191.358 
	770.538,191.358 770.538,163.063 757.405,151.026 757.431,150.999 744.341,139.001 744.315,139.028 744.293,139.007 
	750.079,132.693 736.987,120.697 731.226,126.984 718.176,115.024 723.978,108.693 710.888,96.697 705.115,102.996 692.042,91.015 
	691.991,91.07 691.966,91.047 697.776,84.707 684.687,72.712 678.927,78.996 665.858,67.022 665.811,67.074 665.732,67.004 
	671.583,60.62 658.493,48.625 652.69,54.957 639.604,42.962 639.557,43.013 639.534,42.991 645.343,36.653 632.251,24.658 
	626.489,30.945 613.423,18.969 613.378,19.018 535.538,7.25 535.538,33.028 535.538,70.199 535.538,351.554 535.538,377.833 
	535.538,403.993 613.568,392.052 619.323,398.331 632.415,386.335 626.658,380.054 639.699,368.103 645.345,374.263 
	658.437,362.267 652.789,356.104 665.899,344.089 671.587,350.296 684.677,338.3 678.988,332.093 692.133,320.046 697.78,326.208 
	710.87,314.214 705.222,308.05 718.32,296.046 723.981,302.224 737.071,290.228 731.41,284.05 744.459,272.089 750.081,278.224 
	763.173,266.228 "/>
<polygon fill="none" stroke="#000000" stroke-width="0.5" stroke-miterlimit="10" points="1021.787,66.757 1021.787,40.478 
	1021.787,14.317 943.757,26.259 938.002,19.979 924.91,31.976 930.667,38.257 917.626,50.208 911.98,44.048 898.889,56.044 
	904.536,62.206 891.426,74.222 885.738,68.015 872.648,80.011 878.337,86.218 865.192,98.265 859.545,92.103 846.455,104.097 
	852.104,110.261 839.005,122.265 833.344,116.087 820.254,128.083 825.915,134.261 812.866,146.222 807.244,140.087 
	794.152,152.083 799.775,158.22 786.787,170.122 786.787,184.378 795.301,184.378 795.301,198.551 786.787,198.551 786.787,212.724 
	795.301,212.724 795.301,226.896 786.787,226.896 786.787,255.247 799.92,267.284 799.895,267.312 812.984,279.31 813.01,279.282 
	813.032,279.304 807.246,285.618 820.338,297.614 826.1,291.327 839.149,303.286 833.348,309.618 846.438,321.614 852.21,315.315 
	865.283,327.296 865.334,327.241 865.359,327.263 859.549,333.604 872.639,345.599 878.398,339.313 891.467,351.288 
	891.515,351.235 891.593,351.308 885.742,357.69 898.832,369.687 904.635,363.354 917.722,375.349 917.769,375.298 917.791,375.319 
	911.982,381.657 925.074,393.653 930.836,387.366 943.902,399.343 943.947,399.292 1021.787,411.062 1021.787,385.282 
	1021.787,348.112 "/>
<path fill="none" stroke="#000000" stroke-width="0.5" stroke-miterlimit="10" d="M830.789,48.029V33.856h-8.484v-14.24h-14.174
	v-0.011h-14.174v-8.504h-14.172v8.515h-0.002v-0.011h-14.172v-8.504h-14.174v8.515h-14.172V48.03h-8.514v14.173h8.514v14.173h-8.514
	v14.173h8.514v14.104h14.193v0.015h14.172v8.503h14.174v-8.503h14.174v8.503h14.172v-8.518h14.154V76.377h8.453V62.204h-8.453
	V48.029H830.789z M751.424,29.62h56.693v2.835h-56.693V29.62z M791.559,58.749c0,1.175-0.951,2.127-2.127,2.127
	c-1.172,0-2.125-0.952-2.125-2.127c0-1.173,0.953-2.125,2.125-2.125C790.607,56.624,791.559,57.576,791.559,58.749z M781.678,58.75
	c0,1.175-0.951,2.127-2.127,2.127c-1.172,0-2.125-0.952-2.125-2.127c0-1.173,0.953-2.125,2.125-2.125
	C780.727,56.625,781.678,57.577,781.678,58.75z M771.814,58.957c0,1.175-0.951,2.127-2.127,2.127c-1.172,0-2.125-0.952-2.125-2.127
	c0-1.173,0.953-2.125,2.125-2.125C770.863,56.832,771.814,57.784,771.814,58.957z M808.148,94.627h-56.693v-2.835h56.693V94.627z"/>
<path fill="none" stroke="#000000" stroke-width="0.5" stroke-miterlimit="10" d="M524.941,246"/>
<path fill="none" stroke="#000000" stroke-width="0.5" stroke-miterlimit="10" d="M410.941,48"/>
<path fill="none" stroke="#000000" stroke-width="0.5" stroke-miterlimit="10" d="M433.589,654.71"/>
<path fill="none" stroke="#000000" stroke-width="0.5" stroke-miterlimit="10" d="M-8.329,509.962"/>
<path fill="none" stroke="#000000" stroke-width="0.5" stroke-miterlimit="10" d="M640.049,858.117"/>
<path fill="none" stroke="#000000" stroke-width="0.5" stroke-miterlimit="10" d="M639.729,858.117"/>
</svg>
